<?xml version="1.0" encoding="UTF-8"?>
<svg width="16px" height="16px" viewBox="0 0 16 16" version="1.1" xmlns="http://www.w3.org/2000/svg" xmlns:xlink="http://www.w3.org/1999/xlink">
    <title>Icon / 16 / Close</title>
    <g id="Icon-16" stroke="none" stroke-width="1" fill-rule="evenodd">
        <g id="Icon-/-16-/-Close">
            <path d="M2.61289944,1.20970461 L2.70710678,1.29289322 L8,6.585 L13.2928932,1.29289322 C13.6834175,0.902368927 14.3165825,0.902368927 14.7071068,1.29289322 C15.0675907,1.65337718 15.0953203,2.22060824 14.7902954,2.61289944 L14.7071068,2.70710678 L9.415,8 L14.7071068,13.2928932 C15.0976311,13.6834175 15.0976311,14.3165825 14.7071068,14.7071068 C14.3466228,15.0675907 13.7793918,15.0953203 13.3871006,14.7902954 L13.2928932,14.7071068 L8,9.415 L2.70710678,14.7071068 C2.31658249,15.0976311 1.68341751,15.0976311 1.29289322,14.7071068 C0.932409257,14.3466228 0.904679722,13.7793918 1.20970461,13.3871006 L1.29289322,13.2928932 L6.585,8 L1.29289322,2.70710678 C0.902368927,2.31658249 0.902368927,1.68341751 1.29289322,1.29289322 C1.65337718,0.932409257 2.22060824,0.904679722 2.61289944,1.20970461 Z" id="Combined-Shape"></path>
        </g>
    </g>
</svg>
