<?xml version="1.0" encoding="UTF-8"?>
<svg width="16px" height="16px" viewBox="0 0 16 16" version="1.1" xmlns="http://www.w3.org/2000/svg" xmlns:xlink="http://www.w3.org/1999/xlink">
    <title>Icon / 16 / search</title>
    <g id="Icon-16" stroke="none" stroke-width="1" fill="none" fill-rule="evenodd">
        <g id="Icon-/-16-/-search" fill="#000000">
            <path d="M7.5,0.75 C11.2279221,0.75 14.25,3.77207794 14.25,7.5 C14.25,9.09334842 13.6979308,10.5577542 12.7746406,11.712369 L15.0303301,13.9696699 C15.3232233,14.2625631 15.3232233,14.7374369 15.0303301,15.0303301 C14.7640635,15.2965966 14.3473998,15.3208027 14.0537883,15.1029482 L13.9696699,15.0303301 L11.712369,12.7746406 C10.5577542,13.6979308 9.09334842,14.25 7.5,14.25 C3.77207794,14.25 0.75,11.2279221 0.75,7.5 C0.75,3.77207794 3.77207794,0.75 7.5,0.75 Z M7.5,2.25 C4.60050506,2.25 2.25,4.60050506 2.25,7.5 C2.25,10.3994949 4.60050506,12.75 7.5,12.75 C10.3994949,12.75 12.75,10.3994949 12.75,7.5 C12.75,4.60050506 10.3994949,2.25 7.5,2.25 Z" id="Combined-Shape"></path>
        </g>
    </g>
</svg>